<svg xmlns="http://www.w3.org/2000/svg" width="67.313" height="66.582" viewBox="0 0 67.313 66.582">
  <g id="Grupo_276" data-name="Grupo 276" transform="translate(-17312.844 22667.293)">
    <path id="Trazado_299" data-name="Trazado 299" d="M33.656,0A33.475,33.475,0,0,1,67.313,33.291,33.579,33.579,0,0,1,33.656,66.582,33.475,33.475,0,0,1,0,33.291,33.475,33.475,0,0,1,33.656,0Z" transform="translate(17312.844 -22667.293)" fill="#dedede"/>
    <path id="Trazado_300" data-name="Trazado 300" d="M2.772,0C4.3,0,5.545,2.793,5.545,6.239S4.3,13.16,2.772,13.16,0,9.685,0,6.239,1.241,0,2.772,0Z" transform="translate(17321.492 -22636.16)" fill="#f7931a"/>
    <ellipse id="Elipse_101" data-name="Elipse 101" cx="2.5" cy="6.5" rx="2.5" ry="6.5" transform="translate(17367 -22636)" fill="#f7931a"/>
    <g id="Grupo_272" data-name="Grupo 272" transform="translate(17319.215 -22671.092)">
      <rect id="Rectángulo_129" data-name="Rectángulo 129" width="39.179" height="34" rx="6" transform="matrix(0.999, 0.035, -0.035, 0.999, 8.39, 22.439)" fill="#f5f5f5"/>
      <path id="Trazado_220" data-name="Trazado 220" d="M91.822,117.432V116.7c0-5.751-4.035-10.429-8.994-10.429H72.575V101.2H69.261v5.073H58.592c-4.959,0-8.994,4.678-8.994,10.429v.728c-3.512.787-6.173,4.379-6.173,8.677s2.667,7.9,6.184,8.68c.235,5.509,4.174,9.908,8.983,9.908H82.828c4.809,0,8.748-4.4,8.983-9.908,3.518-.782,6.185-4.376,6.185-8.68S95.334,118.219,91.822,117.432ZM49.6,131.322a5.786,5.786,0,0,1,0-10.426Zm39.326,2.947h0c0,3.9-2.735,7.068-6.1,7.068H58.592c-3.361,0-6.1-3.171-6.1-7.068V116.7c0-3.9,2.735-7.068,6.1-7.068H82.828c3.361,0,6.1,3.171,6.1,7.068Zm2.9-2.947V120.9a5.786,5.786,0,0,1,0,10.426Z" transform="translate(-43.425 -84.928)" fill="#091718"/>
      <g id="Trazado_294" data-name="Trazado 294" transform="matrix(1, -0.017, 0.017, 1, 23.196, 10.232)" fill="#f7931a">
        <path d="M 4.023060321807861 6.499318599700928 C 2.356140375137329 6.499318599700928 1.000000357627869 5.265828609466553 1.000000357627869 3.749658584594727 C 1.000000357627869 2.2334885597229 2.356140375137329 0.9999985694885254 4.023060321807861 0.9999985694885254 C 5.689980506896973 0.9999985694885254 7.046120166778564 2.2334885597229 7.046120166778564 3.749658584594727 C 7.046120166778564 5.265828609466553 5.689980506896973 6.499318599700928 4.023060321807861 6.499318599700928 Z" stroke="none"/>
        <path d="M 4.023060321807861 1.999998569488525 C 2.907540321350098 1.999998569488525 2.000000476837158 2.784888744354248 2.000000476837158 3.749658584594727 C 2.000000476837158 4.714428901672363 2.907540321350098 5.499318599700928 4.023060321807861 5.499318599700928 C 5.138580322265625 5.499318599700928 6.046120643615723 4.714428901672363 6.046120643615723 3.749658584594727 C 6.046120643615723 2.784888744354248 5.138580322265625 1.999998569488525 4.023060321807861 1.999998569488525 M 4.023060321807861 -1.430511474609375e-06 C 6.244930267333984 -1.430511474609375e-06 8.046120643615723 1.678778648376465 8.046120643615723 3.749658584594727 C 8.046120643615723 5.820538520812988 6.244930267333984 7.499318599700928 4.023060321807861 7.499318599700928 C 1.801190376281738 7.499318599700928 0 5.820538520812988 0 3.749658584594727 C 0 1.678778648376465 1.801190376281738 -1.430511474609375e-06 4.023060321807861 -1.430511474609375e-06 Z" stroke="none" fill="#061d31"/>
      </g>
      <path id="Trazado_226" data-name="Trazado 226" d="M21027.234-20722.66c-.871.7,1.461,1.842,3.211,2.8a9.819,9.819,0,0,0,3.789,1.061,11.244,11.244,0,0,0,4.094-1.061c1.883-.963,4.543-2.1,3.441-2.8s-3.9,1.141-7.535,1.141S21028.105-20723.357,21027.234-20722.66Z" transform="translate(-21007.252 20772.852)" fill="#061d31"/>
      <path id="Trazado_230" data-name="Trazado 230" d="M.175.21c-.81.922,1.364,2.428,3,3.7a7.106,7.106,0,0,0,3.536,1.4,8.057,8.057,0,0,0,3.823-1.4c1.757-1.274,4.24-2.78,3.213-3.7S10.105,1.715,6.711,1.715.987-.715.175.21Z" transform="translate(24.53 38.022) rotate(167)" fill="#061d31"/>
      <path id="Trazado_261" data-name="Trazado 261" d="M.178.2c-.822.885,1.385,2.33,3.045,3.553A7.477,7.477,0,0,0,6.811,5.1a8.5,8.5,0,0,0,3.88-1.343c1.783-1.223,4.3-2.668,3.261-3.553s-3.7,1.445-7.141,1.445S1-.687.178.2Z" transform="translate(43.645 40.396) rotate(-172)" fill="#061d31"/>
    </g>
  </g>
</svg>
