<?xml version="1.0" encoding="utf-8"?>
<svg id="master-artboard" viewBox="0 0 996.8477172851562 982.9003295898438" version="1.1" xmlns="http://www.w3.org/2000/svg" x="0px" y="0px" style="enable-background:new 0 0 1400 980; fill:#f7931a;" width="996.8477172851562px" height="982.9003295898438px"><rect id="ee-background" x="0" y="0" width="996.8477172851562" height="982.9003295898438" style="fill: white; fill-opacity: 0; pointer-events: none;"/><defs><style id="ee-google-fonts">@import url(https://fonts.googleapis.com/css?family=Roboto:100,100italic,300,300italic,400,400italic,500,500italic,700,700italic,900,900italic);</style></defs>























































































































<path d="M 260.79998779296875 86.19999694824219" style="fill: rgb(23, 168, 247); fill-opacity: 1; stroke: rgb(0, 0, 0); stroke-opacity: 1; stroke-width: 0; paint-order: fill;" transform="matrix(1, 0, 0, 1, -200.12591552734375, 0)"/><g transform="matrix(1.3614577054977417, -1.3453874588012695, 1.3453874588012695, 1.3614577054977417, -193.0780119895935, 485.8853454589844)"><g>
	<g>
		<g>
			<path d="M437.014,74.983c-99.955-99.978-262.05-99.978-362.03,0.002c-99.979,99.956-99.979,262.052,0,362.031&#10;&#9;&#9;&#9;&#9;s262.075,99.979,362.033-0.002C536.995,337.037,536.995,174.941,437.014,74.983z M406.846,406.846&#10;&#9;&#9;&#9;&#9;c-83.297,83.317-218.375,83.317-301.691,0s-83.317-218.394-0.002-301.69c83.318-83.318,218.396-83.318,301.691-0.003&#10;&#9;&#9;&#9;&#9;C490.162,188.452,490.162,323.53,406.846,406.846z"/>
			<path d="M358.408,354.086c0.226-0.302,0.46-0.597,0.67-0.911c0.204-0.305,0.381-0.621,0.567-0.933&#10;&#9;&#9;&#9;&#9;c0.17-0.285,0.349-0.563,0.506-0.856c0.171-0.319,0.315-0.647,0.468-0.972c0.144-0.306,0.297-0.607,0.427-0.92&#10;&#9;&#9;&#9;&#9;c0.131-0.316,0.236-0.638,0.351-0.958c0.121-0.336,0.25-0.668,0.354-1.012c0.097-0.32,0.168-0.646,0.249-0.969&#10;&#9;&#9;&#9;&#9;c0.089-0.351,0.187-0.698,0.258-1.055c0.074-0.375,0.118-0.753,0.173-1.13c0.044-0.311,0.104-0.617,0.135-0.932&#10;&#9;&#9;&#9;&#9;c0.069-0.701,0.106-1.403,0.106-2.107V213.329c0-11.782-9.551-21.333-21.333-21.333c-11.782,0-21.333,9.551-21.333,21.333v76.497&#10;&#9;&#9;&#9;&#9;L185.756,155.578c-8.331-8.331-21.839-8.331-30.17,0s-8.331,21.839,0,30.17l134.248,134.248h-76.497&#10;&#9;&#9;&#9;&#9;c-11.782,0-21.333,9.551-21.333,21.333c0,11.782,9.551,21.333,21.333,21.333h128c0.703,0,1.405-0.037,2.105-0.106&#10;&#9;&#9;&#9;&#9;c0.316-0.031,0.622-0.09,0.933-0.135c0.377-0.054,0.755-0.098,1.13-0.172c0.358-0.071,0.705-0.169,1.056-0.258&#10;&#9;&#9;&#9;&#9;c0.323-0.081,0.648-0.152,0.968-0.249c0.345-0.104,0.677-0.234,1.014-0.355c0.32-0.115,0.642-0.22,0.957-0.35&#10;&#9;&#9;&#9;&#9;c0.314-0.13,0.615-0.283,0.921-0.428c0.325-0.153,0.653-0.297,0.971-0.468c0.293-0.157,0.571-0.336,0.855-0.506&#10;&#9;&#9;&#9;&#9;c0.313-0.187,0.629-0.363,0.934-0.568c0.314-0.21,0.609-0.443,0.91-0.669c0.255-0.191,0.518-0.369,0.766-0.573&#10;&#9;&#9;&#9;&#9;c0.535-0.439,1.049-0.903,1.539-1.392c0.008-0.007,0.016-0.014,0.023-0.021s0.014-0.016,0.021-0.023&#10;&#9;&#9;&#9;&#9;c0.488-0.49,0.952-1.004,1.392-1.539C358.04,354.603,358.217,354.341,358.408,354.086z"/>
		</g>
	</g>
</g><g>
</g><g>
</g><g>
</g><g>
</g><g>
</g><g>
</g><g>
</g><g>
</g><g>
</g><g>
</g><g>
</g><g>
</g><g>
</g><g>
</g><g>
</g></g></svg>